inDegrees=yes
name=ik_lifting_orientations
DataType=double
version=3
OpenSimVersion=4.5-2024-01-10-34fd6af
endheader
time	pelvis_tilt	pelvis_list	pelvis_rotation	pelvis_tx	pelvis_ty	pelvis_tz	hip_flexion_r	hip_adduction_r	hip_rotation_r	knee_angle_r	knee_angle_r_beta	ankle_angle_r	subtalar_angle_r	mtp_angle_r	hip_flexion_l	hip_adduction_l	hip_rotation_l	knee_angle_l	knee_angle_l_beta	ankle_angle_l	subtalar_angle_l	mtp_angle_l	lumbar_extension	lumbar_bending	lumbar_rotation	arm_flex_r	arm_add_r	arm_rot_r	elbow_flex_r	pro_sup_r	wrist_flex_r	wrist_dev_r	arm_flex_l	arm_add_l	arm_rot_l	elbow_flex_l	pro_sup_l	wrist_flex_l	wrist_dev_l
1.02	-0.3411905459846094	35.22730271911065	-91.21365473728483	0	0.9399999998679526	0	46.1016958123507	-10.31039033703565	0	60.42800580208888	1.054667661660688	-5.006748195232902	0	0	46.1016958123507	-10.31039033703565	0	60.42800580208888	1.054667661660688	-5.006748195232902	0	0	-33.03942891775009	-8.382993936010404	-0.1122470818045571	82.43225174813959	1.375783718362197	-5.407464577522873	9.735089913336541	1.780837621107248	0	0	0	-11.23787050116213	0	88.28342463099945	1.780837621107248	0	0
1.03	-0.3435900273816597	35.22117427809255	-91.2162975352536	0	0.9399999998679526	0	46.09764385031774	-10.30756823119895	0	60.42646142927953	1.054640707270286	-5.006674105566371	0	0	46.09764385031774	-10.30756823119895	0	60.42646142927953	1.054640707270286	-5.006674105566371	0	0	-31.36889093008957	-8.027020616256234	-0.5963412345368265	81.62439979935648	1.693058979186284	-4.589888726815357	10.28697927452601	1.775847712319619	0	0	0	-11.24621073900006	0	88.28823392832557	1.775847712319619	0	0
1.04	0.826524461381362	34.07862879423361	-92.50311946656109	0	0.9399999998679526	0	46.09264858834639	-10.30411184163274	0	60.4245580484815	1.054607487008442	-5.006583586123344	0	0	46.09264858834639	-10.30411184163274	0	60.4245580484815	1.054607487008442	-5.006583586123344	0	0	-31.43375406986215	-9.082290335144579	0.01817603798447947	81.59009678618162	1.898232927802147	-4.406441106647427	10.5842487535747	1.769690339352361	0	0	0	-11.25650846303209	0	88.2941684337486	1.769690339352361	0	0
1.05	1.216798515508156	33.77398843189103	-91.66163674676709	0	0.9399999998679526	0	46.08401920477929	-10.2983976513475	0	60.42121529273096	1.054549144914505	-5.006435897553716	0	0	46.08401920477929	-10.2983976513475	0	60.42121529273096	1.054549144914505	-5.006435897553716	0	0	-30.40798484291281	-8.921439232879887	-1.442469906535151	79.92321816117392	1.881967102380631	-3.969263766028219	11.6357070956486	1.758962790819864	0	0	0	-11.2745581562646	0	88.3045077073262	1.758962790819864	0	0
1.06	1.083403164724618	32.71363336245298	-91.86695183340902	0	0.9399999998679526	0	46.07924582376305	-10.29522789911199	0	60.41937707772512	1.054517062010293	-5.006353938018741	0	0	46.07924582376305	-10.29522789911199	0	60.41937707772512	1.054517062010293	-5.006353938018741	0	0	-30.39252487724688	-8.87783825844382	-0.5570368502979794	80.01014876085131	1.403306669736039	-3.804872871371153	13.29488269501234	1.753033812141647	0	0	0	-11.28452718215652	0	88.31022209070798	1.753033812141647	0	0
1.07	1.078282038180164	32.72911902011552	-91.87277677106013	0	0.9399999998679526	0	46.07112430852431	-10.2898886842685	0	60.41624226687113	1.054462349239464	-5.006216307662583	0	0	46.07112430852431	-10.2898886842685	0	60.41624226687113	1.054462349239464	-5.006216307662583	0	0	-27.61597537425288	-8.419404225715649	-0.4302167663721472	77.01876501663189	1.242015502859947	-2.903481224671999	14.97882438791176	1.742927021258788	0	0	0	-11.30154350195382	0	88.31996307557152	1.742927021258788	0	0
1.08	0.9441893812953814	31.68044243173162	-92.08237126262951	0	0.9399999998679526	0	46.06686802446036	-10.28708681651368	0	60.41460868294509	1.054433837821347	-5.006144100895561	0	0	46.06686802446036	-10.28708681651368	0	60.41460868294509	1.054433837821347	-5.006144100895561	0	0	-27.59766193459307	-8.3306535142	0.4529249391962921	77.05644997054378	1.022727511610622	-2.589407269335619	15.28924389168458	1.737633945790089	0	0	0	-11.31044988526887	0	88.32506457250631	1.737633945790089	0	0
1.09	0.6072304605503822	31.33081243830201	-91.83216110194512	0	0.9399999998679526	0	46.06006204242261	-10.28267030331091	0	60.41198671415853	1.054388075833137	-5.006030795836311	0	0	46.06006204242261	-10.28267030331091	0	60.41198671415853	1.054388075833137	-5.006030795836311	0	0	-26.48112428768716	-8.158105859666698	0.1373550169117739	75.38694265450683	2.240499059018015	-3.474294609634354	18.00618707387313	1.729147811789866	0	0	0	-11.32475533923364	0	88.33324356044322	1.729147811789866	0	0
1.1	0.8961487331563992	29.99491447415288	-91.21809551642259	0	0.9399999998679526	0	46.05266307994949	-10.27794062569165	0	60.40913079243216	1.054338230595832	-5.00591006892565	0	0	46.05266307994949	-10.27794062569165	0	60.40913079243216	1.054338230595832	-5.00591006892565	0	0	-26.47014741944422	-8.495110982222108	0.07979514287507099	73.72815266614658	1.377723082288134	-3.316804831225451	20.46607199787798	1.719898880582436	0	0	0	-11.34037351703805	0	88.34215773962211	1.719898880582436	0	0
1.11	0.7698085309249892	28.95182174521222	-91.42134575445554	0	0.9399999998679526	0	46.04821459947111	-10.27510945224824	0	60.40741539124436	1.054308291197113	-5.005837897450276	0	0	46.04821459947111	-10.27510945224824	0	60.40741539124436	1.054308291197113	-5.005837897450276	0	0	-26.0182968626483	-8.656009743979018	-0.0203016316147336	73.20542590765228	2.942311912616471	-3.129264560162985	21.40880144061349	1.714333547081573	0	0	0	-11.34977676891168	0	88.34752164422272	1.714333547081573	0	0
